<?xml version="1.0" encoding="utf-8"?>
<!-- Generator: Adobe Illustrator 22.1.0, SVG Export Plug-In . SVG Version: 6.00 Build 0)  -->
<svg version="1.1" xmlns="http://www.w3.org/2000/svg" xmlns:xlink="http://www.w3.org/1999/xlink" x="0px" y="0px"
	 viewBox="0 0 119 105" style="enable-background:new 0 0 119 105;" xml:space="preserve">
<style type="text/css">
	.st0{fill:#EAA871;}
	.st1{opacity:0.54;}
</style>
<g id="Layer_1">
</g>
<g id="Layer_2">
</g>
<g id="Layer_3">
	<g>
		<path class="st0" d="M99.9,44.8c0.5,2.3,0.8,4.7,0.8,7.2c0,18.7-15.2,33.9-33.9,33.9S32.9,70.7,32.9,52c0-17.4,13.1-31.7,30-33.7
			l5-13.6c-0.3,0-0.7,0-1,0C40.7,4.7,19.5,25.9,19.5,52s21.1,47.2,47.2,47.2S114,78,114,52c0-3.7-0.4-7.4-1.3-10.8L99.9,44.8z"/>
	</g>
</g>
<g id="Layer_4">
	<g class="st1">
		<polygon class="st0" points="112.7,41.5 111.6,41.8 2,72.2 12.1,81.4 114,53 112.8,42.4 		"/>
	</g>
</g>
<g id="Layer_5">
</g>
</svg>
